<svg width="26" height="26" viewBox="0 0 26 26" fill="none" xmlns="http://www.w3.org/2000/svg">
<g clip-path="url(#clip0_67_28)">
<path d="M3.78629e-05 12.9705C0.017464 5.77158 5.8492 -0.0310219 13.037 -0.00159757C20.2309 0.0269698 26.0146 5.83157 26 13.0074C25.9855 20.1832 20.1523 25.989 12.9839 25.9644C5.7875 25.9401 -0.0171026 20.1315 3.78629e-05 12.9705Z" fill="#A8A8A8"/>
<path d="M5.93567 14.0042C6.8294 14.0042 7.72338 14.0094 8.61712 14.0001C8.80012 13.9981 8.87247 14.049 8.91753 14.2272C9.38868 16.0312 11.0705 17.2921 12.9982 17.2965C13.9306 17.2991 14.8377 16.9994 15.5774 16.4443C16.3172 15.8893 16.8479 15.1101 17.0866 14.2287C17.1366 14.0466 17.206 14.0001 17.387 14.0008C19.1839 14.0065 20.981 14.0065 22.7782 14.0008C22.9784 14.0008 23.0165 14.0375 22.9945 14.2434C22.5661 18.2355 19.5865 21.7227 15.4218 22.693C12.0113 23.4873 8.93781 22.738 6.29491 20.4723C4.49242 18.928 3.44873 16.9575 3.05494 14.6531C2.94404 14.004 2.94253 14.0045 3.62222 14.0045L5.93567 14.0042Z" fill="#6A0DAD"/>
<path d="M20.0556 11.9953C19.1796 11.9953 18.3034 11.9889 17.4277 11.9999C17.2186 12.0026 17.1356 11.933 17.0789 11.7391C16.5828 10.038 15.0587 8.80648 13.3501 8.71405C11.4251 8.6096 9.80051 9.57904 9.07094 11.2673C9.04913 11.3181 9.02932 11.3701 9.01127 11.422C8.8107 11.9953 8.8107 11.9953 8.17389 11.9953C6.55355 11.9953 4.93345 11.9916 3.3131 11.9989C3.07216 11.9989 2.96611 11.9764 3.00949 11.6871C3.58111 7.8699 5.67254 5.16313 9.31864 3.71879C13.248 2.16093 17.5946 3.19435 20.4485 6.24731C21.8793 7.77796 22.7162 9.58909 22.9807 11.6491C23.0248 11.995 23.0218 11.996 22.6565 11.9962C21.7894 11.9958 20.9224 11.9954 20.0556 11.9953Z" fill="#6A0DAD"/>
<path d="M13.021 15.9999C11.393 16.0144 10.0133 14.6824 10.0001 13.0836C9.98615 11.3754 11.3014 10.011 12.9715 10.0001C14.6178 9.98965 15.9789 11.3274 15.9998 12.9765C16.0211 14.6152 14.6708 15.9864 13.021 15.9999Z" fill="#6A0DAD"/>
<path d="M13.0294 11.3292C13.9633 11.3398 14.6735 12.078 14.6621 13.0258C14.6509 13.936 13.9079 14.6482 12.9766 14.6413C12.7595 14.6399 12.5448 14.5956 12.3448 14.511C12.1448 14.4265 11.9635 14.3032 11.8113 14.1484C11.659 13.9936 11.5389 13.8102 11.4576 13.6089C11.3764 13.4075 11.3358 13.1921 11.338 12.975C11.35 12.0385 12.0896 11.3186 13.0294 11.3292Z" fill="#A8A8A8"/>
</g>
<defs>
<clipPath id="clip0_67_28">
<rect width="26" height="25.9663" fill="white"/>
</clipPath>
</defs>
</svg>
