<svg xmlns="http://www.w3.org/2000/svg" width="6" height="26" viewBox="0 0 6 26" fill="none">
  <path d="M2.99984 5.91667C3.56022 5.91667 4.10802 5.7505 4.57396 5.43917C5.0399 5.12783 5.40305 4.68533 5.6175 4.1676C5.83195 3.64988 5.88806 3.08019 5.77873 2.53058C5.66941 1.98097 5.39956 1.47611 5.00331 1.07987C4.60706 0.683616 4.10221 0.413768 3.5526 0.304443C3.00298 0.195118 2.43329 0.251228 1.91557 0.465676C1.39785 0.680124 0.955339 1.04328 0.644009 1.50922C0.332678 1.97516 0.166505 2.52295 0.166505 3.08333C0.166505 3.83478 0.465017 4.55545 0.99637 5.0868C1.52772 5.61816 2.24839 5.91667 2.99984 5.91667ZM2.99984 20.0833C2.43946 20.0833 1.89166 20.2495 1.42572 20.5608C0.959784 20.8722 0.596628 21.3147 0.38218 21.8324C0.167732 22.3501 0.111622 22.9198 0.220947 23.4694C0.330272 24.019 0.600121 24.5239 0.99637 24.9201C1.39262 25.3164 1.89747 25.5862 2.44708 25.6956C2.9967 25.8049 3.56639 25.7488 4.08411 25.5343C4.60183 25.3199 5.04434 24.9567 5.35567 24.4908C5.667 24.0248 5.83317 23.477 5.83317 22.9167C5.83317 22.1652 5.53466 21.4446 5.00331 20.9132C4.47196 20.3818 3.75129 20.0833 2.99984 20.0833ZM2.99984 10.1667C2.43946 10.1667 1.89166 10.3328 1.42572 10.6442C0.959784 10.9555 0.596628 11.398 0.38218 11.9157C0.167732 12.4335 0.111622 13.0031 0.220947 13.5528C0.330272 14.1024 0.600121 14.6072 0.99637 15.0035C1.39262 15.3997 1.89747 15.6696 2.44708 15.7789C2.9967 15.8882 3.56639 15.8321 4.08411 15.6177C4.60183 15.4032 5.04434 15.0401 5.35567 14.5741C5.667 14.1082 5.83317 13.5604 5.83317 13C5.83317 12.2486 5.53466 11.5279 5.00331 10.9965C4.47196 10.4652 3.75129 10.1667 2.99984 10.1667Z" fill="#6A0DAD"/>
</svg>