<svg width="26" height="26" viewBox="0 0 26 26" fill="none" xmlns="http://www.w3.org/2000/svg">
<g clip-path="url(#clip0_8_93)">
<path d="M3.78629e-05 12.9705C0.017464 5.77158 5.8492 -0.0310219 13.037 -0.00159757C20.2309 0.0269698 26.0146 5.83157 26 13.0074C25.9855 20.1832 20.1523 25.989 12.9839 25.9644C5.7875 25.9401 -0.0171026 20.1315 3.78629e-05 12.9705Z" fill="#300350"/>
<path d="M4.94222 13.9605C5.96208 13.9605 6.98222 13.9665 8.00207 13.9556C8.2109 13.9533 8.29346 14.0128 8.34488 14.2207C8.88252 16.3261 10.8017 17.7977 13.0014 17.8028C14.0654 17.8058 15.1005 17.4561 15.9446 16.8083C16.7888 16.1604 17.3944 15.2511 17.6667 14.2224C17.7238 14.0099 17.803 13.9556 18.0095 13.9565C20.0601 13.9632 22.1107 13.9632 24.1615 13.9565C24.39 13.9565 24.4334 13.9993 24.4083 14.2396C23.9195 18.8986 20.5194 22.9683 15.767 24.1008C11.8752 25.0278 8.36802 24.1533 5.35216 21.5091C3.29531 19.7068 2.10434 17.4071 1.65498 14.7178C1.52842 13.9602 1.52671 13.9608 2.30231 13.9608L4.94222 13.9605Z" fill="#6A0DAD"/>
<path d="M21.0454 11.9951C20.0472 11.9951 19.0488 11.9877 18.0509 12.0006C17.8127 12.0037 17.7181 11.9226 17.6536 11.6966C17.0882 9.71462 15.3516 8.27968 13.4047 8.17198C11.2113 8.05028 9.36017 9.17984 8.52886 11.147C8.50401 11.2061 8.48144 11.2667 8.46087 11.3272C8.23234 11.9951 8.23234 11.9951 7.50673 11.9951C5.66042 11.9951 3.8144 11.9909 1.96809 11.9994C1.69356 11.9994 1.57272 11.9732 1.62214 11.6361C2.27347 7.18841 4.65656 4.03457 8.81111 2.35167C13.2885 0.5365 18.2412 1.74061 21.493 5.29782C23.1233 7.08128 24.0769 9.19155 24.3783 11.5918C24.4286 11.9949 24.4252 11.996 24.0089 11.9963C23.0209 11.9957 22.033 11.9953 21.0454 11.9951Z" fill="#6A0DAD"/>
<path d="M13.03 16.3573C11.198 16.3736 9.64535 14.8753 9.6305 13.0767C9.61478 11.1549 11.0949 9.62002 12.9743 9.60773C14.8269 9.59602 16.3587 11.1009 16.3821 12.9561C16.4061 14.7996 14.8866 16.3422 13.03 16.3573Z" fill="#6A0DAD"/>
<path d="M13.0294 11.3292C13.9633 11.3398 14.6735 12.078 14.6621 13.0258C14.6509 13.936 13.9079 14.6482 12.9766 14.6413C12.7595 14.6399 12.5448 14.5956 12.3448 14.511C12.1448 14.4265 11.9635 14.3032 11.8113 14.1484C11.659 13.9936 11.5389 13.8102 11.4576 13.6089C11.3764 13.4075 11.3358 13.1921 11.338 12.975C11.35 12.0385 12.0896 11.3186 13.0294 11.3292Z" fill="#300350"/>
</g>
<defs>
<clipPath id="clip0_8_93">
<rect width="26" height="25.9663" fill="white"/>
</clipPath>
</defs>
</svg>
