<svg xmlns="http://www.w3.org/2000/svg" width="24" height="24" viewBox="0 0 24 24" fill="none">
  <path d="M11.0799 4.63992C11.1491 4.45154 11.2744 4.28892 11.4389 4.17404C11.6034 4.05916 11.7992 3.99756 11.9999 3.99756C12.2006 3.99756 12.3964 4.05916 12.561 4.17404C12.7255 4.28892 12.8508 4.45154 12.9199 4.63992L14.3999 8.35992C14.4667 8.53379 14.5807 8.68555 14.7292 8.7981C14.8776 8.91065 15.0545 8.97951 15.2399 8.99692L19.0829 9.31892C19.9649 9.39292 20.3229 10.5439 19.6509 11.1459L16.7229 13.7659C16.5826 13.8937 16.4789 14.0567 16.4225 14.2379C16.3661 14.4191 16.359 14.612 16.4019 14.7969L17.2969 18.7149C17.5019 19.6149 16.5649 20.3269 15.8089 19.8449L12.5189 17.7449C12.3641 17.6454 12.1839 17.5925 11.9999 17.5925C11.8159 17.5925 11.6357 17.6454 11.4809 17.7449L8.19092 19.8449C7.43492 20.3269 6.49792 19.6149 6.70292 18.7149L7.59792 14.7969C7.64078 14.6123 7.63373 14.4196 7.57749 14.2386C7.52126 14.0575 7.41786 13.8948 7.27792 13.7669L4.34892 11.1459C3.67692 10.5439 4.03492 9.39292 4.91692 9.31892L8.75992 8.99692C8.94537 8.97951 9.12226 8.91065 9.27068 8.7981C9.41909 8.68555 9.53312 8.53379 9.59992 8.35992L11.0799 4.63992Z" stroke="#EFEFEF" stroke-width="1.5" stroke-linecap="round" stroke-linejoin="round"/>
</svg>